<?xml version="1.0" encoding="UTF-8" standalone="no"?>
<!-- Created with Inkscape (http://www.inkscape.org/) -->

<svg
   xmlns:dc="http://purl.org/dc/elements/1.1/"
   xmlns:cc="http://creativecommons.org/ns#"
   xmlns:rdf="http://www.w3.org/1999/02/22-rdf-syntax-ns#"
   xmlns:svg="http://www.w3.org/2000/svg"
   xmlns="http://www.w3.org/2000/svg"
   xmlns:sodipodi="http://sodipodi.sourceforge.net/DTD/sodipodi-0.dtd"
   xmlns:inkscape="http://www.inkscape.org/namespaces/inkscape"
   width="2000"
   height="2000"
   id="svg2"
   version="1.1"
   inkscape:version="0.48.4 r9939"
   sodipodi:docname="IUT.svg">
  <defs
     id="defs4" />
  <sodipodi:namedview
     id="base"
     pagecolor="#ffffff"
     bordercolor="#666666"
     borderopacity="1.0"
     inkscape:pageopacity="0.0"
     inkscape:pageshadow="2"
     inkscape:zoom="0.175"
     inkscape:cx="593.08128"
     inkscape:cy="1873.9737"
     inkscape:document-units="px"
     inkscape:current-layer="layer1"
     showgrid="false"
     inkscape:window-width="1280"
     inkscape:window-height="962"
     inkscape:window-x="-8"
     inkscape:window-y="-8"
     inkscape:window-maximized="1" />
  <metadata
     id="metadata7">
    <rdf:RDF>
      <cc:Work
         rdf:about="">
        <dc:format>image/svg+xml</dc:format>
        <dc:type
           rdf:resource="http://purl.org/dc/dcmitype/StillImage" />
        <dc:title></dc:title>
      </cc:Work>
    </rdf:RDF>
  </metadata>
  <g
     inkscape:label="Layer 1"
     inkscape:groupmode="layer"
     id="layer1"
     transform="translate(0,947.63782)">
    <g
       id="g3895"
       transform="matrix(1.2897998,0,0,1.2897998,546.72751,1153.0156)">
      <g
         transform="translate(-1624.9083,-1365.7143)"
         id="g3834">
        <path
           sodipodi:nodetypes="ccccssssccccc"
           inkscape:connector-curvature="0"
           id="path3766"
           d="m 2106.9125,194.14789 c 16.4553,-1.61919 19.665,2.7222 17.1429,9.64285 -69.7649,56.19517 -85.0267,142.79219 -85.0267,374.27039 l 0,195.01533 -42.1162,0 0,-440 c 0,-27.65652 -36.7461,-28.7544 -36.7461,0 l 0,440 -42.1163,0 0,-195.01533 c 0,-231.4782 -15.2617,-318.07522 -85.0266,-374.27039 -2.5221,-6.92065 0.6875,-11.26204 17.1429,-9.64285 z"
           style="fill:#000000;stroke:#000000;stroke-width:1px;stroke-linecap:butt;stroke-linejoin:miter;stroke-opacity:1" />
        <path
           style="fill:#000000;stroke:#000000;stroke-width:1px;stroke-linecap:butt;stroke-linejoin:miter;stroke-opacity:1"
           d="m 2225.7959,300.93361 c -58.5034,-25.20152 -170.1138,16.41094 -158.5714,141.42857 l 0,217.14286 c 9.4248,-15.66147 19.6961,-31.32294 38.3981,-46.98441 l -1.5152,-158.57143 c 5.4254,-26.45686 36.1046,-15.85629 35.9742,-0.50508 l 0,124.63235 c 19.95,-16.8982 41.8158,-29.486 67.1429,-34.28572 l -1.4286,-190 c -0.4531,-10.04587 -2.5663,-24.48118 9.7145,-33.12958 9.6048,-6.76386 19.1611,-14.07854 10.2855,-19.72756 z"
           id="path3768"
           inkscape:connector-curvature="0"
           sodipodi:nodetypes="cccccccccsc" />
        <path
           sodipodi:nodetypes="cccccccccsc"
           inkscape:connector-curvature="0"
           id="path3770"
           d="m 1727.0607,300.93361 c 58.5035,-25.20152 170.1138,16.41094 158.5715,141.42857 l 0,217.14286 c -9.4249,-15.66147 -19.6961,-31.32294 -38.3981,-46.98441 l 1.5152,-158.57143 c -5.4254,-26.45686 -36.1047,-15.85629 -35.9743,-0.50508 l 0,124.63235 c -19.95,-16.8982 -41.8157,-29.486 -67.1428,-34.28572 l 1.4285,-190 c 0.4531,-10.04587 2.5664,-24.48118 -9.7144,-33.12958 -9.6048,-6.76386 -19.1611,-14.07854 -10.2856,-19.72756 z"
           style="fill:#000000;stroke:#000000;stroke-width:1px;stroke-linecap:butt;stroke-linejoin:miter;stroke-opacity:1" />
        <path
           style="fill:#000000;stroke:#000000;stroke-width:1px;stroke-linecap:butt;stroke-linejoin:miter;stroke-opacity:1"
           d="m 1663.9862,539.23442 c 0,0 0,-130.90877 0,-160.61425 -8.7935,-25.46934 10.8055,-18.67932 19.1929,-11.11168 25.3059,19.88813 24.9215,52.35178 26.264,76.77159 l 0,94.95434 z"
           id="path3772"
           inkscape:connector-curvature="0"
           sodipodi:nodetypes="cccccc" />
        <path
           sodipodi:nodetypes="cccccc"
           inkscape:connector-curvature="0"
           id="path3774"
           d="m 2284.3656,539.23442 c 0,0 0,-130.90877 0,-160.61425 8.7935,-25.46934 -10.8055,-18.67932 -19.1929,-11.11168 -25.3059,19.88813 -24.9215,52.35178 -26.264,76.77159 l 0,94.95434 z"
           style="fill:#000000;stroke:#000000;stroke-width:1px;stroke-linecap:butt;stroke-linejoin:miter;stroke-opacity:1" />
        <path
           style="fill:#000000;stroke:#000000;stroke-width:1px;stroke-linecap:butt;stroke-linejoin:miter;stroke-opacity:1"
           d="m 2051.4286,773.07646 c 82.1816,-231.40338 233.2506,-246.65602 344.2857,-144.99999 16.323,14.94418 6.5962,25.08651 -15.7143,17.14286 -107.6329,-13.14005 -158.9692,52.77469 -204.2857,127.14285 l -45.7143,0 c 26.1091,-46.37703 37.5774,-87.04864 107.1429,-127.85714 11.8316,-6.94063 0.1331,-29.09616 -17.1429,-22.14286 -69.2735,27.88142 -100.7898,84.14318 -122.8571,150.71428 z"
           id="path3776"
           inkscape:connector-curvature="0"
           sodipodi:nodetypes="cscccsscc" />
        <path
           sodipodi:nodetypes="cscccsscc"
           inkscape:connector-curvature="0"
           id="path3778"
           d="m 1903.8599,773.07646 c -82.1816,-231.40338 -233.2506,-246.65602 -344.2857,-144.99999 -16.323,14.94418 -6.5962,25.08651 15.7143,17.14286 107.6329,-13.14005 158.9692,52.77469 204.2857,127.14285 l 45.7143,0 c -26.1091,-46.37703 -37.5774,-87.04864 -107.1429,-127.85714 -11.8316,-6.94063 -0.1331,-29.09616 17.1429,-22.14286 69.2735,27.88142 100.7898,84.14318 122.8571,150.71428 z"
           style="fill:#000000;stroke:#000000;stroke-width:1px;stroke-linecap:butt;stroke-linejoin:miter;stroke-opacity:1" />
        <path
           style="fill:#000000;stroke:#000000;stroke-width:1px;stroke-linecap:butt;stroke-linejoin:miter;stroke-opacity:1"
           d="m 2027.9387,803.94492 0.3572,44.13155 120.3571,0 c 21.6798,4.89302 29.5801,15.59897 30.3572,27.14286 l -151.0715,0 0,84.28571 213.5715,0 c 18.3566,-1.38209 14.476,-13.455 14.2857,-27.14286 -0.7889,-56.7316 -46.322,-127.55904 -110.1488,-128.41726 z"
           id="path3780"
           inkscape:connector-curvature="0"
           sodipodi:nodetypes="cccccccssc" />
        <path
           sodipodi:type="arc"
           style="fill:#000000;fill-opacity:1;stroke:#000000;stroke-width:3;stroke-linecap:round;stroke-linejoin:bevel;stroke-miterlimit:4;stroke-opacity:1;stroke-dasharray:none;stroke-dashoffset:0"
           id="path3782"
           sodipodi:cx="375.27167"
           sodipodi:cy="836.69464"
           sodipodi:rx="36.870567"
           sodipodi:ry="36.870567"
           d="m 412.14223,836.69464 c 0,20.36305 -16.50751,36.87057 -36.87056,36.87057 -20.36305,0 -36.87057,-16.50752 -36.87057,-36.87057 0,-20.36305 16.50752,-36.87057 36.87057,-36.87057 20.36305,0 36.87056,16.50752 36.87056,36.87057 z"
           transform="translate(1603.2678,0)" />
        <path
           sodipodi:nodetypes="cccccccssc"
           inkscape:connector-curvature="0"
           id="path3784"
           d="m 1928.9344,803.94492 -0.3572,44.13155 -120.3571,0 c -21.6798,4.89302 -29.5801,15.59897 -30.3572,27.14286 l 151.0715,0 0,84.28571 -213.5715,0 c -18.3566,-1.38209 -14.476,-13.455 -14.2857,-27.14286 0.7889,-56.7316 46.322,-127.55904 110.1488,-128.41726 z"
           style="fill:#000000;stroke:#000000;stroke-width:1px;stroke-linecap:butt;stroke-linejoin:miter;stroke-opacity:1" />
        <path
           style="fill:#000000;stroke:#000000;stroke-width:1px;stroke-linecap:butt;stroke-linejoin:miter;stroke-opacity:1"
           d="m 2203.7756,782.52063 c 45.292,-85.52954 108.4391,-121.149 187.9797,-118.72988 33.5239,1.01958 48.7546,22.43362 51.4286,48.57143 -106.9268,-15.20608 -165.6574,29.83309 -204.2857,100 -9.8522,-14.83861 -21.2942,-25.60619 -35.1226,-29.84155 z"
           id="path3786"
           inkscape:connector-curvature="0"
           sodipodi:nodetypes="csccc" />
        <path
           sodipodi:nodetypes="csccc"
           inkscape:connector-curvature="0"
           id="path3788"
           d="m 1748.8982,782.52063 c -45.292,-85.52954 -108.4391,-121.149 -187.9797,-118.72988 -33.5239,1.01958 -48.7546,22.43362 -51.4286,48.57143 106.9268,-15.20608 165.6574,29.83309 204.2857,100 9.8522,-14.83861 21.2942,-25.60619 35.1226,-29.84155 z"
           style="fill:#000000;stroke:#000000;stroke-width:1px;stroke-linecap:butt;stroke-linejoin:miter;stroke-opacity:1" />
        <path
           style="fill:#000000;stroke:#000000;stroke-width:1px;stroke-linecap:butt;stroke-linejoin:miter;stroke-opacity:1"
           d="m 1918.8966,989.50504 48.4291,-61.8477 c 11.2939,-15.65031 10.7557,-14.46403 21.8464,0 l 49.0102,61.8477 c -22.8972,0.10529 -40.3428,7.42219 -53.0575,29.18156 -7.0764,15.0889 -6.222,12.0391 -13.2312,0 -12.7095,-21.67931 -30.1361,-29.07644 -52.997,-29.18156 z"
           id="path3790"
           inkscape:connector-curvature="0"
           sodipodi:nodetypes="ccccccc" />
      </g>
      <path
         inkscape:connector-curvature="0"
         id="path3816"
         d="m 236.19785,-1544.6717 0,95.0992 c -28.46554,5.4687 -56.20944,12.9375 -83.11088,22.2318 l -47.53348,-82.3353 -199.569511,115.2308 47.598104,82.4646 c -21.663682,18.8084 -41.973599,39.1183 -60.782103,60.782 l -82.4646,-47.598 -115.23071,199.5695 82.33535,47.5334 c -9.29442,26.9015 -16.7632,54.64534 -22.23184,83.11088 l -95.09926,0 0,230.46142 95.09926,0 c 5.46864,28.46565 12.93742,56.20953 22.23184,83.11088 l -82.33535,47.53348 115.23071,199.56951 82.4646,-47.59811 c 18.808504,21.66369 39.118421,41.9736 60.782103,60.7821 l -47.598104,82.46461 199.569511,115.23071 47.53348,-82.33535 c 26.90144,9.29442 54.64534,16.7632 83.11088,22.23184 l 0,95.09926 230.46142,0 0,-95.09926 c 28.46554,-5.46864 56.20944,-12.93742 83.11088,-22.23184 l 47.53348,82.33535 199.56951,-115.23071 -47.59811,-82.46461 c 21.66369,-18.8085 41.9736,-39.11841 60.7821,-60.7821 l 82.46461,47.59811 115.23066,-199.56951 -82.3353,-47.53348 c 9.29442,-26.90135 16.7632,-54.64523 22.23184,-83.11088 l 95.09926,0 0,-230.46142 -95.09926,0 c -5.46864,-28.46554 -12.93742,-56.20938 -22.23184,-83.11088 l 82.3353,-47.5334 -115.23066,-199.5695 -82.46461,47.598 c -18.8085,-21.6637 -39.11841,-41.9735 -60.7821,-60.782 l 47.59811,-82.4646 -199.56951,-115.2308 -47.53348,82.3353 c -26.90144,-9.2943 -54.64534,-16.7632 -83.11088,-22.2318 l 0,-95.0992 -230.46142,0 z m 60.5559,56.1289 109.3173,0 0,95.2285 c 59.35339,5.935 115.87647,21.4184 168.03133,44.9161 l 47.56579,-82.3676 94.67919,54.6424 -47.63042,82.4646 c 47.28689,34.1354 88.84684,75.7021 122.986,122.986 l 82.46461,-47.598 54.6748,94.6468 -82.36766,47.5658 c 23.49854,52.1557 38.98097,108.70914 44.91607,168.0636 l 95.22852,0 0,109.28498 -95.22852,0 c -5.9351,59.35446 -21.41753,115.90806 -44.91607,168.06364 l 82.36766,47.56579 -54.6748,94.64688 -82.43229,-47.59811 c -34.13614,47.28318 -75.70283,88.84987 -122.98601,122.98601 l 47.59811,82.4646 -94.67919,54.64249 -47.56579,-82.36766 c -52.15486,23.49771 -108.67794,38.9811 -168.03133,44.91607 l 0,95.22852 -109.3173,0 0,-95.22852 c -59.35338,-5.93497 -115.87647,-21.41836 -168.03132,-44.91607 l -47.565795,82.36766 -94.679188,-54.64249 47.630417,-82.4646 C -13.17902,-447.18075 -54.738965,-488.74749 -88.87814,-536.03142 l -82.4646,47.59811 -54.67481,-94.64688 82.36766,-47.56579 c -23.49851,-52.15558 -38.98097,-108.70918 -44.91606,-168.06364 l -95.22852,0 0,-109.28498 95.22852,0 c 5.93509,-59.35446 21.41755,-115.9079 44.91606,-168.0636 l -82.36766,-47.5658 54.67481,-94.6468 82.432287,47.598 c 34.136137,-47.2832 75.702821,-88.8498 122.986003,-122.986 l -47.598103,-82.4646 94.679188,-54.6424 47.565795,82.3676 c 52.15485,-23.4977 108.67794,-38.9811 168.03132,-44.9161 l 0,-95.2285 z"
         style="fill:#000000;stroke:#000000;stroke-width:6.07554865;stroke-linecap:round;stroke-linejoin:bevel;stroke-miterlimit:4;stroke-opacity:1;stroke-dasharray:none;stroke-dashoffset:0" />
      <path
         d="m 1085.7143,-853.35211 c 0,405.5348 -328.75094,734.2857 -734.28574,734.2857 -405.534799,0 -734.28571,-328.7509 -734.28571,-734.2857 0,-405.53479 328.750911,-734.28569 734.28571,-734.28569 405.5348,0 734.28574,328.7509 734.28574,734.28569 z"
         sodipodi:ry="734.28571"
         sodipodi:rx="734.28571"
         sodipodi:cy="-853.35211"
         sodipodi:cx="351.42856"
         id="path3832"
         style="fill:none;stroke:#000000;stroke-width:30;stroke-linecap:round;stroke-linejoin:bevel;stroke-miterlimit:4;stroke-opacity:1;stroke-dasharray:none;stroke-dashoffset:0"
         sodipodi:type="arc" />
      <g
         id="text3849"
         style="font-size:300px;font-style:normal;font-variant:normal;font-weight:normal;font-stretch:normal;line-height:125%;letter-spacing:0px;word-spacing:0px;fill:#000000;fill-opacity:1;stroke:none;font-family:B Traffic;-inkscape-font-specification:B Traffic"
         transform="matrix(0.99890194,-0.04684985,0.04684985,0.99890194,34.544125,15.750769)">
        <path
           inkscape:connector-curvature="0"
           id="path3859"
           style="font-size:140px;font-weight:bold;-inkscape-font-specification:B Traffic Bold"
           d="m 795.52501,-925.97025 c 1.73697,-0.37659 3.22746,-1.35251 4.47149,-2.92779 l 25.13279,-32.16767 14.17894,9.58688 -25.47572,32.5218 c -4.0905,5.22332 -8.89711,8.43358 -14.41985,9.6308 -15.18767,3.29209 -24.64479,-3.65776 -28.37139,-20.84957 l -3.70731,-17.1028 c -1.96951,-9.08589 1.09242,-18.51629 9.18581,-28.29123 l 13.25018,8.52917 c -0.48995,0.10618 -1.5142,1.72714 -3.07276,4.86288 -1.81837,3.65833 -2.46205,6.71231 -1.93103,9.16196 l 4.2721,19.7083 c 1.20677,5.56727 3.36902,8.01302 6.48675,7.33727 z" />
        <path
           inkscape:connector-curvature="0"
           id="path3861"
           style="font-size:140px;font-weight:bold;-inkscape-font-specification:B Traffic Bold"
           d="m 757.88257,-982.90476 -5.38718,-15.20677 79.44893,-28.14577 5.38719,15.2068 z" />
        <path
           inkscape:connector-curvature="0"
           id="path3863"
           style="font-size:140px;font-weight:bold;-inkscape-font-specification:B Traffic Bold"
           d="m 794.76348,-1040.0788 -6.49071,-14.8441 14.84414,-6.4907 6.49071,14.8441 z m -43.42683,-8.5419 -16.72315,7.3123 6.3264,14.4684 c 5.18525,11.8586 14.58405,14.8118 28.19643,8.8597 5.21942,-2.2822 12.15301,-9.5169 20.8008,-21.7041 l -14.66475,-9.4794 -9.753,12.8446 c -0.91882,1.1975 -1.90016,2.0245 -2.94402,2.481 -2.67239,1.1685 -4.78453,-0.022 -6.33644,-3.5711 z" />
        <path
           inkscape:connector-curvature="0"
           id="path3865"
           style="font-size:140px;font-weight:bold;-inkscape-font-specification:B Traffic Bold"
           d="m 774.85358,-1113.1398 -7.93088,-12.0478 -12.27613,8.0812 7.93087,12.0478 z m -9.8854,-15.0169 -7.8557,-11.9335 -12.27614,8.0812 7.8557,11.9335 z m 19.14282,-2.1258 -8.08122,-12.2761 -12.10484,7.9684 8.08122,12.2762 z m -86.55944,7.8761 c -8.06817,0.6735 -14.54541,-2.7011 -19.43172,-10.1239 l -2.18005,-3.3117 15.24525,-10.0357 1.50348,2.2839 c 1.72899,2.6265 3.36302,4.1971 4.90211,4.7116 2.30858,0.7718 5.34712,-0.083 9.11563,-2.5634 l 15.24525,-10.0357 8.87055,13.4752 c -15.87337,10.4492 -21.59239,19.0426 -17.15708,25.7802 2.70623,4.1111 7.23783,4.0742 13.59482,-0.1104 l 14.27457,-9.3968 9.13366,13.8749 c -6.73767,4.4352 -11.36502,7.8906 -13.88207,10.366 -5.65728,5.5791 -7.10771,10.4623 -4.35127,14.6495 2.55586,3.8827 6.74583,3.9071 12.56992,0.073 l 15.47364,-10.1861 8.87055,13.4752 c -10.04938,6.6152 -16.09138,12.0657 -18.126,16.3515 -1.56115,3.2646 -1.00108,6.9334 1.6802,11.0065 l 2.06729,3.1404 -15.24525,10.0357 -2.14246,-3.2546 c -4.10957,-6.2428 -4.56184,-13.229 -1.3568,-20.9585 -7.94101,0.5352 -13.79083,-2.0522 -17.54949,-7.7619 -4.20979,-6.3951 -5.08489,-13.4848 -2.6253,-21.2693 -3.37735,0.4227 -6.77903,-0.3934 -10.20508,-2.4483 -3.07337,-1.8507 -5.6249,-4.3177 -7.65458,-7.401 -1.9796,-3.0072 -3.05958,-6.3883 -3.23993,-10.1434 -0.21749,-3.8944 0.64922,-7.3021 2.60016,-10.2232 z" />
        <path
           inkscape:connector-curvature="0"
           id="path3867"
           style="font-size:140px;font-weight:bold;-inkscape-font-specification:B Traffic Bold"
           d="m 652.64637,-1180.8967 c 1.28966,1.2883 2.72419,2.2704 4.3036,2.9463 2.12729,0.9011 3.73849,0.8036 4.83358,-0.2926 1.48152,-1.4832 2.54402,-3.2239 3.18748,-5.2222 l 8.44514,-26.0583 c 1.15817,-3.5454 2.7035,-6.2853 4.63601,-8.2199 3.86487,-3.869 8.68231,-4.2099 14.45233,-1.0228 l 38.14951,21.1998 -4.34335,13.1501 -32.68623,-19.0275 c -2.1598,-1.2556 -3.83551,-1.2869 -5.02713,-0.094 -0.5798,0.5804 -1.07876,1.5635 -1.49689,2.9494 l -7.57579,24.7044 c -3.40994,11.1517 -1.10075,20.7373 6.92758,28.7571 l 2.70834,2.7054 -12.89919,12.913 -2.7567,-2.7538 c -3.35322,-3.3496 -5.93331,-7.2797 -7.74027,-11.7902 -2.06521,-5.2193 -2.3899,-9.7951 -0.97407,-13.7273 -8.5382,2.6792 -16.88591,-0.055 -25.04314,-8.204 l -10.54317,-10.5319 12.89919,-12.9129 z m 41.49377,-52.5649 41.48595,23.3732 -3.37898,8.7025 -41.09904,-22.9867 z" />
        <path
           inkscape:connector-curvature="0"
           id="path3869"
           style="font-size:140px;font-weight:bold;-inkscape-font-specification:B Traffic Bold"
           d="m 631.68201,-1175.5642 -11.18101,-8.6728 c -5.68955,-4.4133 -8.01947,-10.2579 -6.98976,-17.5338 0.82374,-5.8207 3.63776,-11.8279 8.44207,-18.0216 l 33.93729,-43.7517 12.74744,9.8879 -30.41787,39.2145 c -3.32394,4.2852 -5.21606,7.6911 -5.67637,10.2178 -0.67877,3.6262 0.90837,6.9336 4.76145,9.9224 l 5.5635,4.3154 z" />
        <path
           inkscape:connector-curvature="0"
           id="path3871"
           style="font-size:140px;font-weight:bold;-inkscape-font-specification:B Traffic Bold"
           d="m 606.09672,-1223.2208 c -3.817,6.5844 -9.48158,9.8588 -16.99379,9.8235 -5.87866,-0.036 -12.14956,-1.9861 -18.8127,-5.8487 -8.0826,-4.6855 -13.12401,-10.5052 -15.12425,-17.4592 -2.00029,-6.954 -0.66913,-14.4525 3.99349,-22.4957 3.17693,-5.4803 7.67014,-9.4602 13.47962,-11.9396 6.35339,-2.6908 12.19143,-2.4934 17.51415,0.5921 6.19,3.5884 11.2967,10.4995 15.32013,20.7333 4.32384,10.9875 4.53163,19.8523 0.62335,26.5943 z m -14.89319,-10.2928 c 1.69127,-2.9176 1.24211,-7.0498 -1.34749,-12.3964 -2.28286,-4.6946 -4.62679,-7.739 -7.03179,-9.1332 -1.65599,-0.96 -3.55848,-0.904 -5.70748,0.168 -1.93938,0.9828 -3.41188,2.3417 -4.4175,4.0764 -1.75993,3.0359 -1.9319,6.1495 -0.51589,9.3408 1.23136,2.8736 3.42415,5.2246 6.57836,7.0531 6.46601,3.7483 10.61326,4.0454 12.44179,0.8913 z" />
        <path
           inkscape:connector-curvature="0"
           id="path3873"
           style="font-size:140px;font-weight:bold;-inkscape-font-specification:B Traffic Bold"
           d="m 446.21416,-1290.9839 c 21.46195,-19.1186 38.96589,-26.9277 52.51189,-23.4273 6.26544,1.6191 11.01421,5.6469 14.24632,12.0834 3.11242,6.1703 3.84773,12.4323 2.20595,18.7861 -2.62256,10.1484 -7.58559,17.1502 -14.88909,21.0054 -6.16045,3.2563 -12.90287,3.938 -20.2273,2.0453 l -29.12152,-7.5253 c -9.92783,-2.5655 -15.73954,-7.7623 -17.43515,-15.5904 -2.6102,2.9969 -5.15668,4.9278 -7.63945,5.7924 -3.66868,1.2643 -8.6799,1.0755 -15.03368,-0.5664 l -3.90493,-1.0091 4.5665,-17.6715 2.84597,0.7355 c 5.86842,1.5164 9.46964,-0.3066 10.80369,-5.469 l 4.78885,-18.5319 15.95065,4.1218 -3.47191,13.4356 c -0.47892,1.8532 -0.33264,3.9739 0.43885,6.362 0.77141,2.3881 1.89287,4.1959 3.36436,5.4234 z m 36.86003,12.2786 c 9.22174,2.383 14.83031,-0.2863 16.82575,-8.0079 0.71824,-2.7798 0.26817,-5.2731 -1.35021,-7.48 -1.61855,-2.2069 -3.83974,-3.6752 -6.66356,-4.4049 -3.97119,-1.0262 -8.7422,-0.1409 -14.31303,2.6558 -4.10598,2.0456 -9.83947,5.8358 -17.2005,11.3707 z" />
        <path
           inkscape:connector-curvature="0"
           id="path3875"
           style="font-size:140px;font-weight:bold;-inkscape-font-specification:B Traffic Bold"
           d="m 397.45258,-1332.17 -16.14352,-1.3655 1.36549,-16.1435 16.14353,1.3655 z m 12.56176,55.8767 -3.74638,-0.3169 c -3.45126,-0.2919 -6.67134,-1.559 -9.66027,-3.8014 -2.98899,-2.2423 -5.10023,-4.9935 -6.33373,-8.2536 -3.91421,6.8037 -9.89015,9.8656 -17.92784,9.1857 l -8.58263,-0.7259 1.53834,-18.187 3.13334,0.265 c 6.49373,0.5493 10.0498,-2.8316 10.66822,-10.1428 l 1.5153,-17.9145 16.07541,1.3597 -0.77781,9.1957 c -1.1101,13.1237 3.05758,20.085 12.50306,20.884 l 3.13334,0.265 z" />
        <path
           inkscape:connector-curvature="0"
           id="path3877"
           style="font-size:140px;font-weight:bold;-inkscape-font-specification:B Traffic Bold"
           d="m 367.52979,-1280.5422 -5.60246,0.1836 c -4.3727,0.1433 -9.25234,-1.2698 -14.63892,-4.2395 -3.43631,-1.8937 -6.02471,-3.6555 -7.76521,-5.2856 -6.15287,7.0413 -13.30587,10.6956 -21.45903,10.9628 l -11.7515,0.3852 -0.59792,-18.2422 5.1242,-0.1679 c 6.83226,-0.224 11.93257,-1.1207 15.30095,-2.6902 -4.95804,-3.8045 -8.1912,-6.4571 -9.6995,-7.958 -4.00001,-3.7903 -6.04704,-7.1202 -6.1411,-9.9898 -0.13436,-4.0993 3.44608,-7.5452 10.74133,-10.3379 5.62934,-2.1451 10.94918,-3.2998 15.95954,-3.4641 5.01029,-0.1642 9.34597,0.6513 13.00704,2.4463 4.58837,2.2663 6.95723,5.6769 7.10657,10.2317 0.085,2.5963 -0.276,4.7968 -1.08315,6.6015 -0.93493,2.0826 -3.23404,5.6689 -6.89734,10.7591 2.3916,2.0191 5.91039,2.9525 10.55638,2.8002 l 7.24221,-0.2374 z" />
        <path
           inkscape:connector-curvature="0"
           id="path3879"
           style="font-size:140px;font-weight:bold;-inkscape-font-specification:B Traffic Bold"
           d="m 294.5228,-1334.9166 -14.25996,2.168 -2.18854,-14.3952 14.25997,-2.1679 z m -19.26109,2.9283 -14.25997,2.168 -2.18853,-14.3951 14.25997,-2.168 z m 34.76324,53.5572 -3.71706,0.5651 c -3.42423,0.5206 -6.85097,0.039 -10.28024,-1.4449 -3.42934,-1.4838 -6.12372,-3.6671 -8.08316,-6.5499 -2.22046,7.5287 -7.31807,11.8992 -15.29282,13.1116 l -8.51543,1.2947 -2.74338,-18.0447 3.10881,-0.4726 c 6.44289,-0.9795 9.11292,-5.0962 8.01009,-12.3501 l -2.70227,-17.7743 15.94954,-2.4248 1.3871,9.1236 c 1.97959,13.021 7.65513,18.8191 17.02663,17.3943 l 3.10881,-0.4727 z" />
        <path
           inkscape:connector-curvature="0"
           id="path3881"
           style="font-size:140px;font-weight:bold;-inkscape-font-specification:B Traffic Bold"
           d="m 267.18716,-1275.0536 -4.33834,1.4683 c 1.4609,4.3168 1.99048,8.2271 1.58875,11.7309 -1.08204,9.1707 -6.19448,17.8052 -15.33734,25.9032 -7.77958,6.8669 -16.6336,11.9805 -26.56207,15.3408 -23.35368,7.904 -39.23818,-0.5763 -47.65352,-25.4408 -1.91392,-5.6549 -2.78947,-12.7198 -2.62666,-21.1945 l 14.91467,-0.2848 c 0.19849,5.562 1.07207,10.6309 2.62075,15.2066 4.8651,14.3748 14.63615,19.0785 29.31316,14.1111 15.97192,-5.4057 25.75307,-12.6132 29.34345,-21.6225 0.31338,-0.7797 0.35324,-1.5149 0.11956,-2.2056 -0.30689,-0.9065 -1.08722,-1.364 -2.34098,-1.3727 -4.12223,-0.096 -14.14935,0.6271 -30.08139,2.1703 l -0.7848,-15.5393 45.97345,-15.5596 z" />
        <path
           inkscape:connector-curvature="0"
           id="path3883"
           style="font-size:140px;font-weight:bold;-inkscape-font-specification:B Traffic Bold"
           d="m 139.40329,-1223.5296 -13.72927,8.472 -44.262599,-71.7296 13.729272,-8.472 z" />
        <path
           inkscape:connector-curvature="0"
           id="path3885"
           style="font-size:140px;font-weight:bold;-inkscape-font-specification:B Traffic Bold"
           d="m 48.099986,-1182.7461 c -3.264725,-28.5566 0.435111,-47.363 11.099519,-56.4193 4.93269,-4.1888 10.96059,-5.7503 18.083718,-4.6846 6.836602,1.0103 12.37886,4.0164 16.626793,9.0185 6.784744,7.9897 9.649184,16.0799 8.593334,24.2707 -0.88699,6.9114 -4.213651,12.8155 -9.980005,17.7124 l -22.926715,19.4694 c -7.815951,6.6373 -15.411719,8.3943 -22.787328,5.271 0.946162,3.86 1.057537,7.0537 0.334124,9.5813 -1.079907,3.7271 -4.12095,7.7146 -9.123135,11.9624 l -3.074264,2.6107 -11.814415,-13.9123 2.240566,-1.9027 c 4.620087,-3.9234 5.204425,-7.9172 1.753018,-11.9815 l -12.389648,-14.5898 12.557587,-10.6639 8.982495,10.5775 c 1.238963,1.4591 3.056677,2.5611 5.453145,3.3061 2.396458,0.7451 4.520193,0.8698 6.371211,0.3741 z m 31.269899,-23.0569 c 7.260077,-6.1653 8.308962,-12.2875 3.14666,-18.3666 -1.858491,-2.1884 -4.155842,-3.2568 -6.89206,-3.2052 -2.736296,0.052 -5.216021,1.0216 -7.439184,2.9095 -3.126399,2.655 -5.151098,7.0648 -6.074104,13.2296 -0.693126,4.5346 -0.897702,11.4046 -0.613728,20.61 z" />
        <path
           inkscape:connector-curvature="0"
           id="path3887"
           style="font-size:140px;font-weight:bold;-inkscape-font-specification:B Traffic Bold"
           d="m -2.30615,-1148.1458 c -1.5264789,-1.2288 -3.2764347,-1.5259 -5.2498726,-0.8914 -1.6954589,0.5073 -3.1861834,1.5597 -4.4721784,3.1572 -3.286387,4.0825 -3.332106,7.4097 -0.137157,9.9816 1.703992,1.3717 3.9834244,1.9196 6.8383044,1.6436 2.2781988,-0.2137 4.1801853,-0.7595 5.70596525,-1.6374 0.60971323,-1.5568 0.77222075,-3.5029 0.48752297,-5.8383 -0.34007621,-2.8479 -1.39760336,-4.9864 -3.17258462,-6.4153 z m 1.38827552,52.4554 -14.21759252,-11.4453 11.2309239,-13.9513 c -7.0493499,1.0533 -12.8992489,-0.2919 -17.5497139,-4.0356 -5.111917,-4.1151 -7.798425,-8.8812 -8.059534,-14.2983 -0.26886,-5.1893 1.682845,-10.3755 5.855119,-15.5585 9.316252,-11.5728 19.2815518,-13.0869 29.8959296,-4.5423 2.7689607,2.2291 4.8628974,5.2603 6.2818174,9.0937 1.228441,3.2707 1.612272,5.7736 1.151492,7.5087 l 11.05946,-13.7383 14.217592,11.4452 -6.901445,8.5732 c -2.000449,2.485 -5.317461,4.9339 -9.951045,7.3468 -4.049124,2.1229 -7.098906,3.2951 -9.149356,3.5166 0.0058,2.7544 -0.527385,6.0695 -1.599657,9.9451 -1.403156,5.0135 -3.2906899,8.9934 -5.6626077,11.9399 z m -23.42314852,-70.1058 -10.159271,12.6201 -12.62011,-10.1593 10.159271,-12.6201 z" />
        <path
           inkscape:connector-curvature="0"
           id="path3889"
           style="font-size:140px;font-weight:bold;-inkscape-font-specification:B Traffic Bold"
           d="m 1.3784278,-1098.8701 -2.03854762,3.4006 c -1.89798478,3.1662 -3.19412728,6.3477 -3.88843148,9.5445 -0.95956,4.5257 -0.1689773,7.5501 2.3717505,9.0731 2.11070907,1.2654 5.217181,0.6037 9.3194252,-1.985 1.2267068,-0.8054 3.9535436,-2.9167 8.1805186,-6.3339 l 11.130713,12.8094 c -14.781701,14.1992 -32.095649,18.4851 -51.941896,12.8579 0.618467,2.6024 -0.255592,5.8775 -2.622178,9.8253 l -2.108843,3.5179 -15.654641,-9.3843 1.441042,-2.4039 c 3.37416,-5.6286 2.598707,-9.9191 -2.326361,-12.8715 l -18.468959,-11.0715 8.329927,-13.8957 26.618754,15.957 c 4.964139,2.9758 9.306446,4.7287 13.026933,5.2587 -2.768411,-4.1569 -4.182927,-8.7773 -4.243552,-13.8614 -0.06064,-5.0841 1.209495,-9.7955 3.810409,-14.1343 l 3.409296,-5.6872 z" />
        <path
           inkscape:connector-curvature="0"
           id="path3891"
           style="font-size:140px;font-weight:bold;-inkscape-font-specification:B Traffic Bold"
           d="m -28.10304,-1049.3656 -5.767952,12.9215 c -2.935071,6.5752 -8.058702,10.227 -15.370908,10.9555 -5.84976,0.5829 -12.35353,-0.7233 -19.511329,-3.9185 l -50.562261,-22.5702 6.57603,-14.7317 45.31876,20.2296 c 4.952204,2.2106 8.710162,3.2393 11.273887,3.0861 3.683612,-0.2022 6.519246,-2.5297 8.506911,-6.9826 l 2.870044,-6.4295 z" />
        <path
           inkscape:connector-curvature="0"
           id="path3893"
           style="font-size:140px;font-weight:bold;-inkscape-font-specification:B Traffic Bold"
           d="m -66.55227,-1012.1657 c 9.125727,2.3903 16.93565,7.2862 23.429791,14.68741 9.397381,10.70583 12.052214,23.86186 7.964506,39.46815 -2.898411,11.06554 -8.836548,19.16777 -17.814428,24.30671 -8.977919,5.13898 -19.021664,6.2535 -30.131263,3.34357 -3.085987,-0.8083 -8.205676,-3.11506 -15.359083,-6.92027 l 7.058769,-12.92018 c 3.374653,1.68482 7.178083,3.08148 11.410301,4.18999 6.436515,1.68594 12.261126,0.76184 17.473852,-2.7723 4.934541,-3.37138 8.256316,-8.31942 9.965338,-14.84415 2.066947,-7.89129 1.410013,-14.87079 -1.970804,-20.93852 -3.380853,-6.0676 -8.994895,-10.12914 -16.842143,-12.18464 -4.849425,-1.27012 -12.441134,-0.97376 -22.775149,0.88908 l -5.2443,-15.86005 c 9.457587,-3.5528 20.402447,-3.7011 32.834613,-0.4448 z m -27.439523,32.45607 -4.087749,15.60634 -15.606348,-4.08775 4.08775,-15.60634 z" />
      </g>
      <path
         sodipodi:open="true"
         sodipodi:end="6.1167387"
         sodipodi:start="3.2874607"
         transform="matrix(0.5805529,0,0,0.5805529,147.40569,-357.93607)"
         sodipodi:type="arc"
         style="fill:none;stroke:none"
         id="path3853"
         sodipodi:cx="351.42856"
         sodipodi:cy="-853.35211"
         sodipodi:rx="734.28571"
         sodipodi:ry="734.28571"
         d="m -375.05911,-960.0815 c 58.94501,-401.2281 431.988998,-678.7033 833.21706,-619.7583 315.22747,46.3106 564.62105,290.6241 617.40825,604.83188" />
    </g>
  </g>
</svg>
